<svg xmlns="http://www.w3.org/2000/svg" viewBox="0 0 128 128">
  <rect width="128" height="128" rx="28" fill="#0f172a" />
  <circle cx="64" cy="64" r="44" fill="#6366f1" opacity="0.18" />
  <path
    d="M64 28c-18.7 0-34.8 10.5-43 25.9l8.7 4.7C36 46.2 48.9 38 64 38s28 8.2 34.3 20.6l8.7-4.7C98.8 38.5 82.7 28 64 28Z"
    fill="#c7d2fe"
  />
  <path
    d="M64 48c-10.8 0-20.1 5.9-24.9 14.7l8.8 4.8C51 61.9 57.1 58 64 58s13 3.9 16.1 9.5l8.8-4.8C84.1 53.9 74.8 48 64 48Z"
    fill="#a5b4fc"
  />
  <path
    d="M64 68c-3.9 0-7.4 2.1-9.2 5.3l9.2 18.7 9.2-18.7C71.4 70.1 67.9 68 64 68Z"
    fill="#ffffff"
  />
  <circle cx="64" cy="97" r="6" fill="#ffffff" />
</svg>
